<svg xmlns="http://www.w3.org/2000/svg" xmlns:xlink="http://www.w3.org/1999/xlink" width="500" zoomAndPan="magnify" viewBox="0 0 375 374.999991" height="500" preserveAspectRatio="xMidYMid meet" version="1.0"><defs><clipPath id="4527b85e27"><path d="M 19 48 L 355 48 L 355 337.828125 L 19 337.828125 Z M 19 48 " clip-rule="nonzero"/></clipPath></defs><g clip-path="url(#4527b85e27)"><path fill="#ffffff" d="M 253.105469 200.332031 C 241.6875 200.332031 232.433594 191.074219 232.433594 179.660156 C 232.433594 168.246094 241.6875 158.988281 253.105469 158.988281 C 264.523438 158.988281 273.777344 168.246094 273.777344 179.660156 C 273.777344 191.074219 264.523438 200.332031 253.105469 200.332031 Z M 184.203125 200.332031 C 172.785156 200.332031 163.53125 191.074219 163.53125 179.660156 C 163.53125 168.246094 172.785156 158.988281 184.203125 158.988281 C 195.621094 158.988281 204.871094 168.246094 204.871094 179.660156 C 204.871094 191.074219 195.621094 200.332031 184.203125 200.332031 Z M 115.296875 200.332031 C 103.882812 200.332031 94.625 191.074219 94.625 179.660156 C 94.625 168.246094 103.882812 158.988281 115.296875 158.988281 C 126.714844 158.988281 135.96875 168.246094 135.96875 179.660156 C 135.96875 191.074219 126.714844 200.332031 115.296875 200.332031 Z M 189.617188 48.691406 C 96.945312 46.867188 20.664062 103.972656 19.238281 176.242188 C 18.746094 201.367188 27.367188 225.015625 42.71875 245.253906 L 42.710938 245.253906 C 69.109375 279.164062 40.300781 337.460938 40.300781 337.460938 L 125.355469 300.828125 C 143.679688 306.621094 163.59375 309.992188 184.460938 310.40625 C 277.132812 312.230469 353.414062 255.125 354.835938 182.855469 C 356.261719 110.585938 282.292969 50.519531 189.617188 48.691406 " fill-opacity="1" fill-rule="evenodd"/></g></svg>