<svg xmlns="http://www.w3.org/2000/svg" xmlns:xlink="http://www.w3.org/1999/xlink" width="500" zoomAndPan="magnify" viewBox="0 0 375 374.999991" height="500" preserveAspectRatio="xMidYMid meet" version="1.0"><defs><clipPath id="95f9ee1e99"><path d="M 131 322 L 234 322 L 234 374.078125 L 131 374.078125 Z M 131 322 " clip-rule="nonzero"/></clipPath><clipPath id="b127cca6bc"><path d="M 232 26 L 346.5 26 L 346.5 141 L 232 141 Z M 232 26 " clip-rule="nonzero"/></clipPath></defs><g clip-path="url(#95f9ee1e99)"><path fill="#ffffff" d="M 182.441406 374.078125 C 210.738281 374.078125 233.679688 351.175781 233.742188 322.894531 C 233.742188 322.832031 233.6875 322.777344 233.625 322.777344 L 131.253906 322.777344 C 131.195312 322.777344 131.140625 322.832031 131.140625 322.894531 C 131.203125 351.175781 154.144531 374.078125 182.441406 374.078125 " fill-opacity="1" fill-rule="nonzero"/></g><path fill="#ffffff" d="M 302.351562 256.890625 C 296.746094 249.726562 293.699219 240.890625 293.699219 231.792969 L 293.699219 157.015625 C 292.28125 157.097656 290.855469 157.144531 289.421875 157.144531 C 248.726562 157.144531 215.738281 124.160156 215.738281 83.46875 C 215.738281 69.652344 219.546875 56.734375 226.164062 45.683594 C 218.699219 42.492188 210.820312 40.082031 202.621094 38.578125 C 202.621094 38.578125 202.621094 23.589844 202.621094 23.359375 C 202.621094 12.214844 193.585938 3.175781 182.441406 3.175781 C 171.296875 3.175781 162.261719 12.214844 162.261719 23.359375 C 162.261719 23.589844 162.261719 38.578125 162.261719 38.578125 C 110.90625 47.988281 71.882812 92.660156 71.199219 146.566406 L 71.183594 146.566406 L 71.183594 231.792969 C 71.183594 240.890625 68.136719 249.726562 62.53125 256.890625 L 32.316406 295.46875 C 28.488281 301.054688 32.488281 308.644531 39.257812 308.644531 L 325.621094 308.644531 C 332.394531 308.644531 336.394531 301.054688 332.5625 295.46875 L 302.351562 256.890625 " fill-opacity="1" fill-rule="nonzero"/><g clip-path="url(#b127cca6bc)"><path fill="#fc9642" d="M 346.839844 83.46875 C 346.839844 115.179688 321.132812 140.886719 289.421875 140.886719 C 257.707031 140.886719 232 115.179688 232 83.46875 C 232 51.753906 257.707031 26.046875 289.421875 26.046875 C 321.132812 26.046875 346.839844 51.753906 346.839844 83.46875 " fill-opacity="1" fill-rule="nonzero"/></g><path fill="#fc9642" d="M 288.949219 55.367188 L 276.042969 62.277344 L 278.117188 70.472656 L 287.125 65.609375 L 287.125 111.566406 L 296.800781 111.566406 L 296.800781 55.367188 L 288.949219 55.367188 " fill-opacity="1" fill-rule="nonzero"/></svg>