<svg xmlns="http://www.w3.org/2000/svg" xmlns:xlink="http://www.w3.org/1999/xlink" width="500" zoomAndPan="magnify" viewBox="0 0 375 374.999991" height="500" preserveAspectRatio="xMidYMid meet" version="1.0"><defs><clipPath id="db7b9dc79d"><path d="M 19 48 L 355 48 L 355 337.828125 L 19 337.828125 Z M 19 48 " clip-rule="nonzero"/></clipPath><clipPath id="5dbf365a8f"><path d="M 260 15.28125 L 375 15.28125 L 375 156.28125 L 260 156.28125 Z M 260 15.28125 " clip-rule="nonzero"/></clipPath><clipPath id="b9b1bb0c4c"><path d="M 245.929688 17 L 375 17 L 375 154 L 245.929688 154 Z M 245.929688 17 " clip-rule="nonzero"/></clipPath><clipPath id="f2a7159a50"><path d="M 269 26.089844 L 373.992188 26.089844 L 373.992188 145.339844 L 269 145.339844 Z M 269 26.089844 " clip-rule="nonzero"/></clipPath><clipPath id="618a631ec2"><path d="M 256.734375 27 L 372 27 L 372 143 L 256.734375 143 Z M 256.734375 27 " clip-rule="nonzero"/></clipPath></defs><g clip-path="url(#db7b9dc79d)"><path fill="#ffffff" d="M 253.105469 200.332031 C 241.6875 200.332031 232.433594 191.074219 232.433594 179.660156 C 232.433594 168.246094 241.6875 158.988281 253.105469 158.988281 C 264.523438 158.988281 273.777344 168.246094 273.777344 179.660156 C 273.777344 191.074219 264.523438 200.332031 253.105469 200.332031 Z M 184.203125 200.332031 C 172.785156 200.332031 163.53125 191.074219 163.53125 179.660156 C 163.53125 168.246094 172.785156 158.988281 184.203125 158.988281 C 195.621094 158.988281 204.871094 168.246094 204.871094 179.660156 C 204.871094 191.074219 195.621094 200.332031 184.203125 200.332031 Z M 115.296875 200.332031 C 103.882812 200.332031 94.625 191.074219 94.625 179.660156 C 94.625 168.246094 103.882812 158.988281 115.296875 158.988281 C 126.714844 158.988281 135.96875 168.246094 135.96875 179.660156 C 135.96875 191.074219 126.714844 200.332031 115.296875 200.332031 Z M 189.617188 48.691406 C 96.945312 46.867188 20.664062 103.972656 19.238281 176.242188 C 18.746094 201.367188 27.367188 225.015625 42.71875 245.253906 L 42.710938 245.253906 C 69.109375 279.164062 40.300781 337.460938 40.300781 337.460938 L 125.355469 300.828125 C 143.679688 306.621094 163.59375 309.992188 184.460938 310.40625 C 277.132812 312.230469 353.414062 255.125 354.835938 182.855469 C 356.261719 110.585938 282.292969 50.519531 189.617188 48.691406 " fill-opacity="1" fill-rule="evenodd"/></g><g clip-path="url(#5dbf365a8f)"><path fill="#173aeb" d="M 298.25 -120.199219 C 304.886719 -111.722656 308.496094 -101.261719 308.496094 -90.492188 L 308.496094 -1.972656 C 310.171875 -2.070312 311.859375 -2.125 313.558594 -2.125 C 361.730469 -2.125 400.78125 36.921875 400.78125 85.089844 C 400.78125 101.441406 396.273438 116.734375 388.441406 129.820312 C 397.277344 133.597656 406.605469 136.449219 416.308594 138.230469 C 416.308594 138.230469 416.308594 155.972656 416.308594 156.246094 C 416.308594 169.4375 427.007812 180.136719 440.199219 180.136719 C 453.386719 180.136719 464.085938 169.4375 464.085938 156.246094 C 464.085938 155.972656 464.085938 138.230469 464.085938 138.230469 C 524.878906 127.089844 571.070312 74.210938 571.882812 10.398438 L 571.898438 10.398438 L 571.898438 -90.492188 C 571.898438 -101.261719 575.507812 -111.722656 582.144531 -120.199219 L 617.910156 -165.867188 C 622.441406 -172.484375 617.707031 -181.464844 609.695312 -181.464844 L 270.707031 -181.464844 C 262.6875 -181.464844 257.953125 -172.484375 262.488281 -165.867188 L 298.25 -120.199219 " fill-opacity="1" fill-rule="nonzero"/></g><g clip-path="url(#b9b1bb0c4c)"><path fill="#173aeb" d="M 245.589844 85.089844 C 245.589844 47.550781 276.019531 17.121094 313.558594 17.121094 C 351.101562 17.121094 381.53125 47.550781 381.53125 85.089844 C 381.53125 122.632812 351.101562 153.0625 313.558594 153.0625 C 276.019531 153.0625 245.589844 122.632812 245.589844 85.089844 " fill-opacity="1" fill-rule="nonzero"/></g><path fill="#fc9642" d="M 314.113281 118.355469 L 329.394531 110.175781 L 326.9375 100.472656 L 316.277344 106.230469 L 316.277344 51.828125 L 304.820312 51.828125 L 304.820312 118.355469 L 314.113281 118.355469 " fill-opacity="1" fill-rule="nonzero"/><g clip-path="url(#f2a7159a50)"><path fill="#173aeb" d="M 300.878906 -88.222656 C 306.488281 -81.058594 309.535156 -72.222656 309.535156 -63.125 L 309.535156 11.652344 C 310.953125 11.570312 312.378906 11.523438 313.8125 11.523438 C 354.507812 11.523438 387.496094 44.507812 387.496094 85.203125 C 387.496094 99.015625 383.6875 111.933594 377.070312 122.984375 C 384.535156 126.175781 392.414062 128.585938 400.609375 130.089844 C 400.609375 130.089844 400.609375 145.082031 400.609375 145.308594 C 400.609375 156.453125 409.648438 165.492188 420.792969 165.492188 C 431.933594 165.492188 440.972656 156.453125 440.972656 145.308594 C 440.972656 145.082031 440.972656 130.089844 440.972656 130.089844 C 492.328125 120.679688 531.347656 76.011719 532.035156 22.101562 L 532.046875 22.101562 L 532.046875 -63.125 C 532.046875 -72.222656 535.097656 -81.058594 540.703125 -88.222656 L 570.917969 -126.800781 C 574.746094 -132.386719 570.746094 -139.976562 563.976562 -139.976562 L 277.613281 -139.976562 C 270.839844 -139.976562 266.839844 -132.386719 270.671875 -126.800781 L 300.878906 -88.222656 " fill-opacity="1" fill-rule="nonzero"/></g><g clip-path="url(#618a631ec2)"><path fill="#fc9642" d="M 256.394531 85.203125 C 256.394531 53.488281 282.101562 27.78125 313.8125 27.78125 C 345.527344 27.78125 371.234375 53.488281 371.234375 85.203125 C 371.234375 116.914062 345.527344 142.621094 313.8125 142.621094 C 282.101562 142.621094 256.394531 116.914062 256.394531 85.203125 " fill-opacity="1" fill-rule="nonzero"/></g><path fill="#fc9642" d="M 314.28125 113.300781 L 327.191406 106.390625 L 325.113281 98.195312 L 316.109375 103.058594 L 316.109375 57.101562 L 306.429688 57.101562 L 306.429688 113.300781 L 314.28125 113.300781 " fill-opacity="1" fill-rule="nonzero"/></svg>