<svg xmlns="http://www.w3.org/2000/svg" xmlns:xlink="http://www.w3.org/1999/xlink" width="1200" zoomAndPan="magnify" viewBox="0 0 900 187.499995" height="250" preserveAspectRatio="xMidYMid meet" version="1.0"><defs><g/></defs><g fill="#f3f7fa" fill-opacity="1"><g transform="translate(7.928869, 158.233178)"><g><path d="M 46.75 0.5 C 44.613281 0.5 42.84375 0 41.4375 -1 C 40.039062 -2 39.007812 -3.300781 38.34375 -4.90625 L 5.109375 -83.5 C 4.578125 -84.769531 4.3125 -86.039062 4.3125 -87.3125 C 4.3125 -89.644531 5.160156 -91.691406 6.859375 -93.453125 C 8.554688 -95.222656 10.675781 -96.109375 13.21875 -96.109375 C 14.882812 -96.109375 16.4375 -95.640625 17.875 -94.703125 C 19.3125 -93.773438 20.394531 -92.441406 21.125 -90.703125 L 46.5625 -29.4375 L 71.78125 -90.703125 C 72.519531 -92.304688 73.640625 -93.59375 75.140625 -94.5625 C 76.640625 -95.53125 78.222656 -96.015625 79.890625 -96.015625 C 82.234375 -96.015625 84.304688 -95.113281 86.109375 -93.3125 C 87.835938 -91.570312 88.703125 -89.535156 88.703125 -87.203125 C 88.773438 -86.265625 88.507812 -85.03125 87.90625 -83.5 L 54.671875 -4.90625 C 53.796875 -3.238281 52.691406 -1.921875 51.359375 -0.953125 C 50.023438 0.015625 48.488281 0.5 46.75 0.5 Z M 46.75 0.5 "/></g></g><g transform="translate(100.942582, 158.233178)"><g><path d="M 53.265625 1.203125 C 46.660156 1.203125 40.398438 -0.046875 34.484375 -2.546875 C 28.578125 -5.054688 23.359375 -8.578125 18.828125 -13.109375 C 14.285156 -17.585938 10.742188 -22.8125 8.203125 -28.78125 C 5.671875 -34.757812 4.40625 -41.050781 4.40625 -47.65625 C 4.40625 -54.257812 5.671875 -60.546875 8.203125 -66.515625 C 10.742188 -72.492188 14.285156 -77.753906 18.828125 -82.296875 C 23.359375 -86.835938 28.578125 -90.359375 34.484375 -92.859375 C 40.398438 -95.359375 46.660156 -96.609375 53.265625 -96.609375 C 59.941406 -96.609375 66.265625 -95.335938 72.234375 -92.796875 C 78.210938 -90.265625 83.4375 -86.765625 87.90625 -82.296875 C 92.375 -77.753906 95.859375 -72.515625 98.359375 -66.578125 C 100.867188 -60.640625 102.125 -54.332031 102.125 -47.65625 C 102.125 -40.976562 100.867188 -34.671875 98.359375 -28.734375 C 95.859375 -22.796875 92.375 -17.585938 87.90625 -13.109375 C 83.4375 -8.640625 78.210938 -5.132812 72.234375 -2.59375 C 66.265625 -0.0625 59.941406 1.203125 53.265625 1.203125 Z M 53.265625 -16.515625 C 57.597656 -16.515625 61.648438 -17.316406 65.421875 -18.921875 C 69.191406 -20.523438 72.515625 -22.796875 75.390625 -25.734375 C 78.265625 -28.597656 80.484375 -31.914062 82.046875 -35.6875 C 83.617188 -39.457031 84.40625 -43.445312 84.40625 -47.65625 C 84.40625 -51.863281 83.617188 -55.851562 82.046875 -59.625 C 80.484375 -63.394531 78.265625 -66.710938 75.390625 -69.578125 C 72.515625 -72.453125 69.191406 -74.6875 65.421875 -76.28125 C 61.648438 -77.882812 57.597656 -78.6875 53.265625 -78.6875 C 48.992188 -78.6875 44.972656 -77.882812 41.203125 -76.28125 C 37.429688 -74.6875 34.109375 -72.453125 31.234375 -69.578125 C 28.367188 -66.710938 26.132812 -63.394531 24.53125 -59.625 C 22.925781 -55.851562 22.125 -51.863281 22.125 -47.65625 C 22.125 -43.445312 22.925781 -39.457031 24.53125 -35.6875 C 26.132812 -31.914062 28.367188 -28.597656 31.234375 -25.734375 C 34.109375 -22.796875 37.429688 -20.523438 41.203125 -18.921875 C 44.972656 -17.316406 48.992188 -16.515625 53.265625 -16.515625 Z M 53.265625 -16.515625 "/></g></g><g transform="translate(207.47282, 158.233178)"><g><path d="M 45.5625 0.09375 C 40.820312 0.09375 36.429688 -0.703125 32.390625 -2.296875 C 28.347656 -3.898438 24.828125 -6.207031 21.828125 -9.21875 C 18.753906 -12.21875 16.382812 -15.769531 14.71875 -19.875 C 13.050781 -23.976562 12.21875 -28.5 12.21875 -33.4375 L 12.21875 -122.34375 C 12.21875 -124.882812 13.050781 -127.003906 14.71875 -128.703125 C 16.382812 -130.410156 18.421875 -131.265625 20.828125 -131.265625 C 23.359375 -131.265625 25.492188 -130.425781 27.234375 -128.75 C 29.035156 -126.945312 29.9375 -124.8125 29.9375 -122.34375 L 29.9375 -33.4375 C 29.9375 -28.300781 31.269531 -24.347656 33.9375 -21.578125 C 36.613281 -18.804688 40.285156 -17.390625 44.953125 -17.328125 L 45.5625 -17.328125 C 48.09375 -17.328125 50.175781 -16.488281 51.8125 -14.8125 C 53.445312 -13.144531 54.265625 -11.078125 54.265625 -8.609375 C 54.265625 -6.078125 53.445312 -3.992188 51.8125 -2.359375 C 50.175781 -0.722656 48.09375 0.09375 45.5625 0.09375 Z M 45.5625 0.09375 "/></g></g><g transform="translate(263.941857, 158.233178)"><g><path d="M 55.359375 1.203125 C 48.953125 1.203125 42.925781 -0.015625 37.28125 -2.453125 C 31.644531 -4.890625 26.691406 -8.273438 22.421875 -12.609375 C 18.148438 -16.953125 14.828125 -21.992188 12.453125 -27.734375 C 10.085938 -33.472656 8.90625 -39.515625 8.90625 -45.859375 L 8.90625 -87.609375 C 8.90625 -90.078125 9.753906 -92.160156 11.453125 -93.859375 C 13.160156 -95.566406 15.25 -96.421875 17.71875 -96.421875 C 20.125 -96.421875 22.191406 -95.566406 23.921875 -93.859375 C 25.660156 -92.160156 26.53125 -90.078125 26.53125 -87.609375 L 26.53125 -45.359375 C 26.59375 -41.421875 27.359375 -37.695312 28.828125 -34.1875 C 30.296875 -30.6875 32.367188 -27.601562 35.046875 -24.9375 C 37.648438 -22.257812 40.6875 -20.1875 44.15625 -18.71875 C 47.625 -17.25 51.359375 -16.515625 55.359375 -16.515625 C 59.304688 -16.515625 62.945312 -17.265625 66.28125 -18.765625 C 69.613281 -20.273438 72.484375 -22.394531 74.890625 -25.125 C 77.222656 -27.800781 79.039062 -30.941406 80.34375 -34.546875 C 81.644531 -38.148438 82.296875 -41.953125 82.296875 -45.953125 L 82.296875 -87.609375 C 82.296875 -89.941406 83.195312 -92.007812 85 -93.8125 C 86.738281 -95.550781 88.84375 -96.421875 91.3125 -96.421875 C 93.84375 -96.421875 95.925781 -95.566406 97.5625 -93.859375 C 99.195312 -92.160156 100.015625 -90.078125 100.015625 -87.609375 L 100.015625 -45.859375 C 100.015625 -39.453125 98.910156 -33.394531 96.703125 -27.6875 C 94.503906 -21.976562 91.40625 -16.953125 87.40625 -12.609375 C 83.332031 -8.273438 78.554688 -4.890625 73.078125 -2.453125 C 67.609375 -0.015625 61.703125 1.203125 55.359375 1.203125 Z M 55.359375 1.203125 "/></g></g><g transform="translate(372.875033, 158.233178)"><g><path d="M 16.015625 0 C 13.484375 0 11.382812 -0.832031 9.71875 -2.5 C 7.84375 -4.164062 6.90625 -6.234375 6.90625 -8.703125 L 6.90625 -49.453125 C 6.90625 -55.867188 8.070312 -61.945312 10.40625 -67.6875 C 12.75 -73.425781 16.019531 -78.460938 20.21875 -82.796875 C 24.488281 -87.140625 29.425781 -90.523438 35.03125 -92.953125 C 40.644531 -95.390625 46.625 -96.609375 52.96875 -96.609375 C 59.375 -96.609375 65.394531 -95.390625 71.03125 -92.953125 C 76.675781 -90.523438 81.664062 -87.140625 86 -82.796875 C 90.207031 -78.460938 93.476562 -73.425781 95.8125 -67.6875 C 98.144531 -61.945312 99.3125 -55.867188 99.3125 -49.453125 L 99.3125 -8.703125 C 99.3125 -6.171875 98.476562 -4.085938 96.8125 -2.453125 C 95.144531 -0.816406 93.078125 0 90.609375 0 C 88.140625 0 86.035156 -0.816406 84.296875 -2.453125 C 82.566406 -4.085938 81.703125 -6.171875 81.703125 -8.703125 L 81.703125 -49.265625 C 81.628906 -53.265625 80.875 -57.066406 79.4375 -60.671875 C 78.007812 -64.273438 75.992188 -67.410156 73.390625 -70.078125 C 70.722656 -72.816406 67.632812 -74.953125 64.125 -76.484375 C 60.625 -78.023438 56.90625 -78.796875 52.96875 -78.796875 C 44.820312 -78.796875 38.078125 -75.957031 32.734375 -70.28125 C 30.128906 -67.613281 28.125 -64.476562 26.71875 -60.875 C 25.320312 -57.269531 24.625 -53.460938 24.625 -49.453125 L 24.625 -8.703125 C 24.625 -6.171875 23.804688 -4.085938 22.171875 -2.453125 C 20.535156 -0.816406 18.484375 0 16.015625 0 Z M 16.015625 0 "/></g></g></g><g fill="#fc9642" fill-opacity="1"><g transform="translate(481.81358, 158.233178)"><g><path d="M 57.96875 1.203125 C 51.226562 1.203125 44.882812 -0.015625 38.9375 -2.453125 C 33 -4.890625 27.796875 -8.3125 23.328125 -12.71875 C 18.785156 -17.1875 15.242188 -22.359375 12.703125 -28.234375 C 10.171875 -34.109375 8.90625 -40.382812 8.90625 -47.0625 L 8.90625 -116.640625 C 8.90625 -119.109375 9.804688 -121.242188 11.609375 -123.046875 C 13.347656 -124.785156 15.421875 -125.65625 17.828125 -125.65625 C 20.296875 -125.65625 22.460938 -124.785156 24.328125 -123.046875 C 26.128906 -121.242188 27.03125 -119.109375 27.03125 -116.640625 L 27.03125 -97.015625 L 66.78125 -97.015625 C 69.25 -97.015625 71.347656 -96.128906 73.078125 -94.359375 C 74.816406 -92.585938 75.6875 -90.46875 75.6875 -88 C 75.6875 -85.601562 74.832031 -83.585938 73.125 -81.953125 C 71.425781 -80.316406 69.3125 -79.5 66.78125 -79.5 L 27.03125 -79.5 L 27.03125 -46.859375 C 27.03125 -42.648438 27.8125 -38.691406 29.375 -34.984375 C 30.945312 -31.285156 33.171875 -28.035156 36.046875 -25.234375 C 38.847656 -22.429688 42.132812 -20.257812 45.90625 -18.71875 C 49.675781 -17.1875 53.695312 -16.421875 57.96875 -16.421875 C 66.113281 -16.421875 72.789062 -18.820312 78 -23.625 C 80.132812 -25.625 82.367188 -26.625 84.703125 -26.625 C 86.703125 -26.625 88.570312 -25.859375 90.3125 -24.328125 C 91.914062 -22.722656 92.71875 -20.753906 92.71875 -18.421875 C 92.71875 -15.484375 91.644531 -12.945312 89.5 -10.8125 C 81.09375 -2.800781 70.582031 1.203125 57.96875 1.203125 Z M 57.96875 1.203125 "/></g></g><g transform="translate(576.829743, 158.233178)"><g><path d="M 53.46875 1.203125 C 46.851562 1.203125 40.539062 -0.0625 34.53125 -2.59375 C 28.53125 -5.132812 23.296875 -8.640625 18.828125 -13.109375 C 14.285156 -17.585938 10.742188 -22.8125 8.203125 -28.78125 C 5.671875 -34.757812 4.40625 -41.050781 4.40625 -47.65625 C 4.40625 -54.332031 5.671875 -60.65625 8.203125 -66.625 C 10.742188 -72.601562 14.285156 -77.828125 18.828125 -82.296875 C 23.296875 -86.765625 28.53125 -90.265625 34.53125 -92.796875 C 40.539062 -95.335938 46.851562 -96.609375 53.46875 -96.609375 C 60.007812 -96.609375 66.265625 -95.359375 72.234375 -92.859375 C 78.210938 -90.359375 83.46875 -86.875 88 -82.40625 C 92.476562 -77.925781 96 -72.71875 98.5625 -66.78125 C 101.132812 -60.84375 102.457031 -54.601562 102.53125 -48.0625 C 102.53125 -45.65625 101.726562 -43.648438 100.125 -42.046875 C 98.519531 -40.441406 96.445312 -39.640625 93.90625 -39.640625 L 24.03125 -39.640625 C 24.757812 -36.242188 26.023438 -33.109375 27.828125 -30.234375 C 29.628906 -27.367188 31.832031 -24.832031 34.4375 -22.625 C 39.914062 -18.082031 46.257812 -15.8125 53.46875 -15.8125 C 56.800781 -15.8125 59.617188 -16.113281 61.921875 -16.71875 C 64.222656 -17.320312 66.546875 -18.320312 68.890625 -19.71875 C 70.753906 -20.789062 72.519531 -21.328125 74.1875 -21.328125 C 76.457031 -21.328125 78.492188 -20.425781 80.296875 -18.625 C 82.035156 -16.75 82.90625 -14.578125 82.90625 -12.109375 C 82.90625 -8.035156 79.96875 -4.765625 74.09375 -2.296875 C 71.414062 -1.160156 68.289062 -0.296875 64.71875 0.296875 C 61.15625 0.898438 57.40625 1.203125 53.46875 1.203125 Z M 23.53125 -54.46875 L 84.40625 -54.46875 C 83.132812 -61.8125 79.660156 -67.816406 73.984375 -72.484375 C 71.253906 -74.753906 68.148438 -76.523438 64.671875 -77.796875 C 61.203125 -79.066406 57.566406 -79.703125 53.765625 -79.703125 C 45.816406 -79.703125 39.109375 -77.265625 33.640625 -72.390625 C 30.972656 -70.117188 28.769531 -67.429688 27.03125 -64.328125 C 25.289062 -61.222656 24.125 -57.9375 23.53125 -54.46875 Z M 23.53125 -54.46875 "/></g></g><g transform="translate(683.760471, 158.233178)"><g><path d="M 53.5625 1.09375 C 46.882812 1.09375 40.554688 -0.140625 34.578125 -2.609375 C 28.609375 -5.078125 23.359375 -8.515625 18.828125 -12.921875 C 14.285156 -17.390625 10.742188 -22.5625 8.203125 -28.4375 C 5.671875 -34.3125 4.40625 -40.550781 4.40625 -47.15625 C 4.40625 -53.894531 5.65625 -60.285156 8.15625 -66.328125 C 10.664062 -72.367188 14.1875 -77.660156 18.71875 -82.203125 C 23.195312 -86.734375 28.4375 -90.265625 34.4375 -92.796875 C 40.445312 -95.335938 46.820312 -96.609375 53.5625 -96.609375 C 59.96875 -96.609375 66.054688 -95.472656 71.828125 -93.203125 C 77.609375 -90.941406 82.597656 -87.707031 86.796875 -83.5 C 88.941406 -81.164062 90.015625 -78.726562 90.015625 -76.1875 C 90.015625 -73.582031 88.976562 -71.445312 86.90625 -69.78125 C 86.039062 -69.050781 85.070312 -68.484375 84 -68.078125 C 82.9375 -67.679688 81.96875 -67.484375 81.09375 -67.484375 C 79.625 -67.484375 78.222656 -67.847656 76.890625 -68.578125 L 69.890625 -73.59375 C 67.015625 -75.457031 64.15625 -76.753906 61.3125 -77.484375 C 58.476562 -78.222656 55.363281 -78.59375 51.96875 -78.59375 C 47.894531 -78.457031 44.054688 -77.535156 40.453125 -75.828125 C 36.847656 -74.128906 33.707031 -71.847656 31.03125 -68.984375 C 28.363281 -66.109375 26.28125 -62.835938 24.78125 -59.171875 C 23.28125 -55.503906 22.53125 -51.695312 22.53125 -47.75 C 22.53125 -43.75 23.28125 -39.878906 24.78125 -36.140625 C 26.28125 -32.398438 28.398438 -29.128906 31.140625 -26.328125 C 33.941406 -23.328125 37.175781 -20.988281 40.84375 -19.3125 C 44.519531 -17.644531 48.492188 -16.8125 52.765625 -16.8125 C 56.035156 -16.8125 59.035156 -17.175781 61.765625 -17.90625 C 64.503906 -18.644531 67.210938 -19.953125 69.890625 -21.828125 L 76.890625 -26.734375 C 78.429688 -27.535156 79.867188 -27.9375 81.203125 -27.9375 C 82.066406 -27.9375 83.03125 -27.734375 84.09375 -27.328125 C 85.164062 -26.929688 86.101562 -26.363281 86.90625 -25.625 C 88.90625 -23.757812 89.90625 -21.625 89.90625 -19.21875 C 89.90625 -17.957031 89.640625 -16.675781 89.109375 -15.375 C 88.578125 -14.070312 87.804688 -12.921875 86.796875 -11.921875 C 82.660156 -7.773438 77.6875 -4.566406 71.875 -2.296875 C 66.070312 -0.0351562 59.96875 1.09375 53.5625 1.09375 Z M 53.5625 1.09375 "/></g></g><g transform="translate(778.276021, 158.233178)"><g><path d="M 94.21875 0.09375 C 91.75 0.09375 89.675781 -0.722656 88 -2.359375 C 86.332031 -3.992188 85.5 -6.078125 85.5 -8.609375 L 85.5 -49.359375 C 85.5 -53.429688 84.863281 -57.285156 83.59375 -60.921875 C 82.332031 -64.554688 80.53125 -67.710938 78.1875 -70.390625 C 75.789062 -73.117188 72.9375 -75.234375 69.625 -76.734375 C 66.320312 -78.242188 62.671875 -79 58.671875 -79 C 54.660156 -79 50.769531 -78.265625 47 -76.796875 C 43.226562 -75.328125 39.84375 -73.289062 36.84375 -70.6875 C 33.84375 -68.019531 31.472656 -64.898438 29.734375 -61.328125 C 27.992188 -57.753906 27.125 -54 27.125 -50.0625 L 27.125 -8.8125 C 27.125 -6.34375 26.273438 -4.253906 24.578125 -2.546875 C 22.878906 -0.847656 20.796875 0 18.328125 0 C 15.785156 0 13.660156 -0.847656 11.953125 -2.546875 C 10.253906 -4.253906 9.40625 -6.34375 9.40625 -8.8125 L 9.40625 -122.84375 C 9.40625 -125.382812 10.273438 -127.519531 12.015625 -129.25 C 13.753906 -130.988281 15.859375 -131.859375 18.328125 -131.859375 C 20.722656 -131.859375 22.789062 -130.988281 24.53125 -129.25 C 26.257812 -127.519531 27.125 -125.382812 27.125 -122.84375 L 27.125 -81 C 31.195312 -85.9375 35.9375 -89.769531 41.34375 -92.5 C 46.75 -95.238281 52.523438 -96.609375 58.671875 -96.609375 C 65.015625 -96.609375 70.9375 -95.390625 76.4375 -92.953125 C 81.945312 -90.523438 86.703125 -87.140625 90.703125 -82.796875 C 94.640625 -78.523438 97.691406 -73.503906 99.859375 -67.734375 C 102.035156 -61.960938 103.125 -55.867188 103.125 -49.453125 L 103.125 -8.609375 C 103.125 -6.078125 102.253906 -3.992188 100.515625 -2.359375 C 98.785156 -0.722656 96.6875 0.09375 94.21875 0.09375 Z M 94.21875 0.09375 "/></g></g></g></svg>