<svg xmlns="http://www.w3.org/2000/svg" xmlns:xlink="http://www.w3.org/1999/xlink" width="1200" zoomAndPan="magnify" viewBox="0 0 900 187.499995" height="250" preserveAspectRatio="xMidYMid meet" version="1.0"><defs><g/></defs><g fill="#173aeb" fill-opacity="1"><g transform="translate(7.928869, 158.676464)"><g><path d="M 46.757812 0.5 C 50.261719 0.5 52.964844 -1.601562 54.664062 -4.90625 L 87.90625 -83.5 C 88.507812 -85.003906 88.808594 -86.203125 88.707031 -87.203125 C 88.707031 -89.507812 87.804688 -91.609375 86.101562 -93.3125 C 84.300781 -95.113281 82.199219 -96.015625 79.894531 -96.015625 C 76.59375 -96.015625 73.289062 -93.914062 71.785156 -90.707031 L 46.554688 -29.433594 L 21.125 -90.707031 C 19.625 -94.214844 16.519531 -96.117188 13.214844 -96.117188 C 8.109375 -96.117188 4.304688 -92.011719 4.304688 -87.304688 C 4.304688 -86.003906 4.605469 -84.703125 5.105469 -83.5 L 38.347656 -4.90625 C 39.648438 -1.703125 42.449219 0.5 46.757812 0.5 Z M 46.757812 0.5 "/></g></g></g><g fill="#173aeb" fill-opacity="1"><g transform="translate(100.940325, 158.676464)"><g><path d="M 53.265625 1.203125 C 66.578125 1.203125 78.996094 -4.203125 87.90625 -13.117188 C 96.816406 -22.027344 102.121094 -34.339844 102.121094 -47.65625 C 102.121094 -60.972656 96.816406 -73.1875 87.90625 -82.296875 C 78.996094 -91.210938 66.578125 -96.617188 53.265625 -96.617188 C 40.046875 -96.617188 27.933594 -91.410156 18.824219 -82.296875 C 9.710938 -73.1875 4.40625 -60.875 4.40625 -47.65625 C 4.40625 -34.441406 9.710938 -22.027344 18.824219 -13.117188 C 27.933594 -4.003906 40.046875 1.203125 53.265625 1.203125 Z M 53.265625 -16.519531 C 44.753906 -16.519531 36.945312 -19.824219 31.238281 -25.730469 C 25.53125 -31.4375 22.125 -39.246094 22.125 -47.65625 C 22.125 -56.066406 25.53125 -63.875 31.238281 -69.582031 C 36.945312 -75.289062 44.753906 -78.695312 53.265625 -78.695312 C 61.972656 -78.695312 69.683594 -75.289062 75.390625 -69.582031 C 81.097656 -63.875 84.402344 -56.066406 84.402344 -47.65625 C 84.402344 -39.246094 81.097656 -31.4375 75.390625 -25.730469 C 69.683594 -19.824219 61.972656 -16.519531 53.265625 -16.519531 Z M 53.265625 -16.519531 "/></g></g></g><g fill="#173aeb" fill-opacity="1"><g transform="translate(207.46797, 158.676464)"><g><path d="M 45.554688 0.101562 C 50.660156 0.101562 54.265625 -3.503906 54.265625 -8.609375 C 54.265625 -13.515625 50.660156 -17.320312 45.554688 -17.320312 L 44.953125 -17.320312 C 35.644531 -17.421875 29.9375 -23.128906 29.9375 -33.441406 L 29.9375 -122.347656 C 29.9375 -124.851562 29.035156 -126.953125 27.234375 -128.753906 C 25.429688 -130.457031 23.328125 -131.257812 20.824219 -131.257812 C 16.019531 -131.257812 12.214844 -127.453125 12.214844 -122.347656 L 12.214844 -33.441406 C 12.214844 -23.527344 15.71875 -15.21875 21.828125 -9.210938 C 27.832031 -3.203125 36.042969 0.101562 45.554688 0.101562 Z M 45.554688 0.101562 "/></g></g></g><g fill="#173aeb" fill-opacity="1"><g transform="translate(263.935631, 158.676464)"><g><path d="M 55.367188 1.203125 C 68.082031 1.203125 79.296875 -3.90625 87.40625 -12.613281 C 95.414062 -21.324219 100.019531 -33.039062 100.019531 -45.855469 L 100.019531 -87.605469 C 100.019531 -92.511719 96.414062 -96.414062 91.308594 -96.414062 C 88.90625 -96.414062 86.605469 -95.414062 85.003906 -93.8125 C 83.199219 -92.011719 82.296875 -89.90625 82.296875 -87.605469 L 82.296875 -45.957031 C 82.296875 -37.945312 79.59375 -30.4375 74.890625 -25.128906 C 70.085938 -19.625 63.277344 -16.519531 55.367188 -16.519531 C 47.355469 -16.519531 40.25 -19.625 35.042969 -24.929688 C 29.734375 -30.234375 26.632812 -37.445312 26.53125 -45.355469 L 26.53125 -87.605469 C 26.53125 -92.511719 22.527344 -96.414062 17.722656 -96.414062 C 12.816406 -96.414062 8.910156 -92.511719 8.910156 -87.605469 L 8.910156 -45.855469 C 8.910156 -33.140625 13.917969 -21.324219 22.425781 -12.613281 C 30.9375 -3.90625 42.550781 1.203125 55.367188 1.203125 Z M 55.367188 1.203125 "/></g></g></g><g fill="#173aeb" fill-opacity="1"><g transform="translate(372.866155, 158.676464)"><g><path d="M 16.019531 0 C 20.925781 0 24.628906 -3.605469 24.628906 -8.710938 L 24.628906 -49.460938 C 24.628906 -57.46875 27.53125 -64.976562 32.738281 -70.285156 C 37.945312 -75.789062 44.953125 -78.792969 52.964844 -78.792969 C 60.875 -78.792969 68.082031 -75.589844 73.386719 -70.085938 C 78.59375 -64.777344 81.597656 -57.269531 81.699219 -49.257812 L 81.699219 -8.710938 C 81.699219 -3.605469 85.703125 0 90.609375 0 C 95.515625 0 99.320312 -3.605469 99.320312 -8.710938 L 99.320312 -49.460938 C 99.320312 -62.273438 94.414062 -74.089844 86.003906 -82.800781 C 77.292969 -91.511719 65.777344 -96.617188 52.964844 -96.617188 C 40.25 -96.617188 28.734375 -91.511719 20.222656 -82.800781 C 11.8125 -74.089844 6.910156 -62.273438 6.910156 -49.460938 L 6.910156 -8.710938 C 6.910156 -6.207031 7.808594 -4.203125 9.710938 -2.503906 C 11.414062 -0.800781 13.515625 0 16.019531 0 Z M 16.019531 0 "/></g></g></g><g fill="#fc9642" fill-opacity="1"><g transform="translate(481.802209, 158.676464)"><g><path d="M 57.96875 1.203125 C 70.585938 1.203125 81.097656 -2.804688 89.507812 -10.8125 C 91.511719 -12.816406 92.710938 -15.71875 92.710938 -18.421875 C 92.710938 -20.726562 91.910156 -22.726562 90.308594 -24.328125 C 88.605469 -25.832031 86.804688 -26.632812 84.703125 -26.632812 C 82.398438 -26.632812 80.097656 -25.628906 77.992188 -23.628906 C 72.789062 -18.824219 66.078125 -16.417969 57.96875 -16.417969 C 49.460938 -16.417969 41.648438 -19.625 36.042969 -25.230469 C 30.335938 -30.835938 27.03125 -38.445312 27.03125 -46.855469 L 27.03125 -79.496094 L 66.78125 -79.496094 C 71.886719 -79.496094 75.691406 -83.199219 75.691406 -88.003906 C 75.691406 -92.910156 71.6875 -97.015625 66.78125 -97.015625 L 27.03125 -97.015625 L 27.03125 -116.640625 C 27.03125 -119.144531 26.132812 -121.246094 24.328125 -123.046875 C 22.628906 -124.648438 20.222656 -125.652344 17.820312 -125.652344 C 15.417969 -125.652344 13.316406 -124.75 11.613281 -123.046875 C 9.8125 -121.246094 8.910156 -119.144531 8.910156 -116.640625 L 8.910156 -47.054688 C 8.910156 -33.742188 14.21875 -21.625 23.328125 -12.714844 C 32.238281 -3.90625 44.453125 1.203125 57.96875 1.203125 Z M 57.96875 1.203125 "/></g></g></g><g fill="#fc9642" fill-opacity="1"><g transform="translate(576.816064, 158.676464)"><g><path d="M 53.464844 1.203125 C 61.375 1.203125 68.78125 0 74.089844 -2.304688 C 79.996094 -4.804688 82.898438 -8.007812 82.898438 -12.113281 C 82.898438 -14.515625 81.898438 -16.921875 80.296875 -18.621094 C 78.496094 -20.425781 76.492188 -21.324219 74.1875 -21.324219 C 72.488281 -21.324219 70.785156 -20.824219 68.882812 -19.722656 C 64.175781 -16.921875 60.171875 -15.820312 53.464844 -15.820312 C 46.355469 -15.820312 39.746094 -18.222656 34.441406 -22.628906 C 29.234375 -27.03125 25.53125 -32.839844 24.027344 -39.648438 L 93.914062 -39.648438 C 99.019531 -39.648438 102.523438 -43.25 102.523438 -48.058594 C 102.421875 -61.171875 96.917969 -73.488281 88.003906 -82.398438 C 78.894531 -91.308594 66.578125 -96.617188 53.464844 -96.617188 C 40.25 -96.617188 27.734375 -91.210938 18.824219 -82.296875 C 9.710938 -73.386719 4.40625 -60.972656 4.40625 -47.65625 C 4.40625 -34.441406 9.710938 -22.027344 18.824219 -13.117188 C 27.734375 -4.203125 40.25 1.203125 53.464844 1.203125 Z M 23.527344 -54.464844 C 24.730469 -61.375 28.335938 -67.882812 33.640625 -72.386719 C 38.945312 -77.09375 46.054688 -79.695312 53.765625 -79.695312 C 61.375 -79.695312 68.480469 -76.992188 73.988281 -72.488281 C 79.496094 -67.980469 83.199219 -61.574219 84.402344 -54.464844 Z M 23.527344 -54.464844 "/></g></g></g><g fill="#fc9642" fill-opacity="1"><g transform="translate(683.74419, 158.676464)"><g><path d="M 53.5625 1.101562 C 66.378906 1.101562 78.496094 -3.605469 86.804688 -11.914062 C 88.808594 -13.917969 89.90625 -16.71875 89.90625 -19.222656 C 89.90625 -21.625 88.90625 -23.726562 86.90625 -25.628906 C 85.300781 -27.132812 82.898438 -27.933594 81.199219 -27.933594 C 79.796875 -27.933594 78.394531 -27.53125 76.890625 -26.730469 L 69.882812 -21.828125 C 64.578125 -18.121094 59.269531 -16.820312 52.761719 -16.820312 C 44.253906 -16.820312 36.742188 -20.324219 31.136719 -26.332031 C 25.628906 -31.9375 22.527344 -39.746094 22.527344 -47.757812 C 22.527344 -55.667969 25.730469 -63.277344 31.039062 -68.984375 C 36.34375 -74.691406 43.851562 -78.292969 51.960938 -78.59375 C 58.769531 -78.59375 64.175781 -77.292969 69.882812 -73.589844 L 76.890625 -68.582031 C 78.195312 -67.882812 79.59375 -67.480469 81.097656 -67.480469 C 82.800781 -67.480469 85.203125 -68.28125 86.90625 -69.785156 C 89.007812 -71.484375 90.007812 -73.6875 90.007812 -76.191406 C 90.007812 -78.695312 88.90625 -81.199219 86.804688 -83.5 C 78.394531 -91.910156 66.378906 -96.617188 53.5625 -96.617188 C 40.046875 -96.617188 27.632812 -91.308594 18.722656 -82.199219 C 9.613281 -73.085938 4.40625 -60.671875 4.40625 -47.15625 C 4.40625 -33.941406 9.710938 -21.828125 18.824219 -12.914062 C 27.933594 -4.105469 40.25 1.101562 53.5625 1.101562 Z M 53.5625 1.101562 "/></g></g></g><g fill="#fc9642" fill-opacity="1"><g transform="translate(778.257439, 158.676464)"><g><path d="M 94.214844 0.101562 C 99.117188 0.101562 103.125 -3.503906 103.125 -8.609375 L 103.125 -49.460938 C 103.125 -62.273438 98.617188 -74.289062 90.707031 -82.800781 C 82.699219 -91.511719 71.386719 -96.617188 58.671875 -96.617188 C 46.355469 -96.617188 35.242188 -90.910156 27.132812 -80.996094 L 27.132812 -122.847656 C 27.132812 -125.351562 26.230469 -127.554688 24.53125 -129.253906 C 22.828125 -130.957031 20.726562 -131.859375 18.320312 -131.859375 C 15.917969 -131.859375 13.617188 -130.855469 12.015625 -129.253906 C 10.3125 -127.554688 9.410156 -125.351562 9.410156 -122.847656 L 9.410156 -8.8125 C 9.410156 -3.90625 13.214844 0 18.320312 0 C 23.226562 0 27.132812 -3.90625 27.132812 -8.8125 L 27.132812 -50.058594 C 27.132812 -57.96875 30.835938 -65.378906 36.84375 -70.683594 C 42.851562 -75.890625 50.660156 -78.996094 58.671875 -78.996094 C 66.679688 -78.996094 73.386719 -75.890625 78.195312 -70.382812 C 82.898438 -65.078125 85.503906 -57.46875 85.503906 -49.359375 L 85.503906 -8.609375 C 85.503906 -3.503906 89.308594 0.101562 94.214844 0.101562 Z M 94.214844 0.101562 "/></g></g></g></svg>